PathFileType	3	(X/Y/Z)	walking_2__fused_aligned.trc
DataRate	CameraRate	NumFrames	NumMarkers	Units	OrigDataRate	OrigDataStartFrame	OrigNumFrames
100.0	100.0	14	19	mm	100.0	2584	6270
Frame#	Time	pelvis			neck			head			hip_left			hip_right			knee_left			knee_right			ankle_left			ankle_right			heel_left			heel_right			toe_left			toe_right			shoulder_left			shoulder_right			elbow_left			elbow_right			wrist_left			wrist_right			
		X1	Y1	Z1	X2	Y2	Z2	X3	Y3	Z3	X4	Y4	Z4	X5	Y5	Z5	X6	Y6	Z6	X7	Y7	Z7	X8	Y8	Z8	X9	Y9	Z9	X10	Y10	Z10	X11	Y11	Z11	X12	Y12	Z12	X13	Y13	Z13	X14	Y14	Z14	X15	Y15	Z15	X16	Y16	Z16	X17	Y17	Z17	X18	Y18	Z18	X19	Y19	Z19	
2584	25.83000	5.279036	939.820593	167.773374	-8.557131	1493.041374	245.686326	1.635892	1558.200775	400.569712	82.034957	938.687018	163.975203	-71.476732	940.954200	171.571403	127.200505	552.525790	388.679335	-89.875713	497.583663	168.830858	134.256640	179.355410	321.646401	-94.678584	113.945838	19.824801	131.806884	139.625026	287.862808	-94.874486	70.694390	-21.980328	122.840288	105.128337	474.649867	-92.035165	38.574686	194.448165	162.928477	1456.400491	166.221085	-188.616708	1432.234246	244.299597	232.978352	1176.690019	89.833040	-245.558526	1142.036594	269.715790	305.337983	931.389735	130.836382	-204.577053	939.261085	429.336993
2585	25.84000	6.911852	938.930891	168.096153	-6.901794	1492.328428	245.465474	3.487599	1557.707022	400.378258	83.598486	937.968196	164.609742	-69.774660	939.893615	171.582437	127.288486	551.980607	389.380128	-89.719523	496.415178	167.160150	135.262267	175.196138	329.636907	-94.668767	117.609347	11.699335	133.142145	134.197841	296.522459	-94.692569	75.519326	-30.617661	123.035685	105.148228	486.428938	-92.770591	39.599800	183.212416	164.652298	1455.227176	166.108429	-187.202425	1431.663476	244.043842	233.584416	1175.324662	89.010744	-243.795764	1141.506487	270.379766	305.458109	929.151611	127.295026	-200.959854	939.504755	431.799316
2586	25.85000	8.544668	938.041189	168.418933	-5.246457	1491.615481	245.244622	5.339306	1557.213268	400.186804	85.162014	937.249375	165.244281	-68.072587	938.833031	171.593471	127.376467	551.435424	390.080922	-89.563334	495.246693	165.489441	136.267894	171.036866	337.627413	-94.658951	121.272856	3.573870	134.477407	128.770655	305.182110	-94.510652	80.344263	-39.254994	123.231082	105.168119	498.208008	-93.506017	40.624913	171.976667	166.376118	1454.053861	165.995774	-185.788141	1431.092706	243.788088	234.190480	1173.959305	88.188447	-242.033003	1140.976380	271.043741	305.578236	926.913487	123.753669	-197.342656	939.748424	434.261638
2587	25.86000	10.177484	937.151487	168.741712	-3.591121	1490.902534	245.023770	7.191012	1556.719515	399.995350	86.725543	936.530553	165.878821	-66.370515	937.772446	171.604506	127.464448	550.890242	390.781715	-89.407144	494.078208	163.818733	137.273522	166.877593	345.617918	-94.649134	124.936365	-4.551596	135.812668	123.343470	313.841761	-94.328735	85.169200	-47.892327	123.426479	105.188010	509.987079	-94.241442	41.650027	160.740919	168.099938	1452.880545	165.883119	-184.373858	1430.521935	243.532334	234.796543	1172.593948	87.366151	-240.270241	1140.446273	271.707716	305.698362	924.675363	120.212313	-193.725457	939.992093	436.723961
2588	25.87000	11.810300	936.261785	169.064492	-1.935784	1490.189587	244.802918	9.042719	1556.225762	399.803896	88.289072	935.811732	166.513360	-64.668443	936.711862	171.615540	127.552430	550.345059	391.482509	-89.250954	492.909724	162.148024	138.279149	162.718321	353.608424	-94.639317	128.599874	-12.677062	137.147929	117.916284	322.501412	-94.146819	89.994136	-56.529660	123.621877	105.207901	521.766149	-94.976868	42.675141	149.505170	169.823759	1451.707230	165.770463	-182.959574	1429.951165	243.276580	235.402607	1171.228591	86.543855	-238.507479	1139.916166	272.371692	305.818488	922.437239	116.670957	-190.108258	940.235762	439.186283
2589	25.88000	13.443116	935.372083	169.387272	-0.280447	1489.476641	244.582066	10.894426	1555.732008	399.612442	89.852601	935.092910	167.147899	-62.966370	935.651277	171.626574	127.640411	549.799877	392.183303	-89.094764	491.741239	160.477316	139.284776	158.559049	361.598929	-94.629500	132.263383	-20.802527	138.483191	112.489098	331.161063	-93.964902	94.819073	-65.166992	123.817274	105.227792	533.545220	-95.712294	43.700255	138.269421	171.547579	1450.533915	165.657808	-181.545291	1429.380395	243.020825	236.008671	1169.863234	85.721558	-236.744718	1139.386059	273.035667	305.938615	920.199114	113.129601	-186.491060	940.479432	441.648605
2590	25.89000	15.075932	934.482381	169.710051	1.374889	1488.763694	244.361214	12.746132	1555.238255	399.420988	91.416130	934.374089	167.782438	-61.264298	934.590693	171.637608	127.728392	549.254694	392.884096	-88.938574	490.572754	158.806607	140.290404	154.399776	369.589435	-94.619683	135.926892	-28.927993	139.818452	107.061913	339.820714	-93.782985	99.644010	-73.804325	124.012671	105.247683	545.324290	-96.447720	44.725368	127.033672	173.271400	1449.360599	165.545152	-180.131007	1428.809625	242.765071	236.614735	1168.497877	84.899262	-234.981956	1138.855952	273.699643	306.058741	917.960990	109.588245	-182.873861	940.723101	444.110928
2591	25.90000	16.708748	933.592679	170.032831	3.030226	1488.050747	244.140362	14.597839	1554.744502	399.229534	92.979658	933.655267	168.416978	-59.562226	933.530108	171.648642	127.816374	548.709512	393.584890	-88.782385	489.404269	157.135899	141.296031	150.240504	377.579941	-94.609867	139.590401	-37.053459	141.153714	101.634727	348.480365	-93.601068	104.468946	-82.441658	124.208068	105.267574	557.103361	-97.183145	45.750482	115.797923	174.995220	1448.187284	165.432497	-178.716724	1428.238855	242.509317	237.220799	1167.132520	84.076966	-233.219195	1138.325845	274.363618	306.178868	915.722866	106.046889	-179.256663	940.966770	446.573250
2592	25.91000	18.341564	932.702977	170.355610	4.685563	1487.337801	243.919510	16.449546	1554.250748	399.038080	94.543187	932.936445	169.051517	-57.860153	932.469523	171.659676	127.904355	548.164329	394.285684	-88.626195	488.235784	155.465190	142.301658	146.081232	385.570446	-94.600050	143.253910	-45.178924	142.488975	96.207542	357.140016	-93.419152	109.293883	-91.078991	124.403465	105.287465	568.882431	-97.918571	46.775596	104.562174	176.719040	1447.013969	165.319842	-177.302440	1427.668085	242.253563	237.826863	1165.767162	83.254669	-231.456433	1137.795738	275.027593	306.298994	913.484742	102.505533	-175.639464	941.210440	449.035573
2593	25.92000	19.974380	931.813275	170.678390	6.340899	1486.624854	243.698658	18.301252	1553.756995	398.846626	96.106716	932.217624	169.686056	-56.158081	931.408939	171.670710	127.992336	547.619147	394.986477	-88.470005	487.067300	153.794482	143.307286	141.921959	393.560952	-94.590233	146.917419	-53.304390	143.824236	90.780356	365.799667	-93.237235	114.118820	-99.716324	124.598862	105.307356	580.661502	-98.653997	47.800710	93.326426	178.442861	1445.840653	165.207186	-175.888157	1427.097315	241.997808	238.432927	1164.401805	82.432373	-229.693671	1137.265631	275.691569	306.419120	911.246618	98.964177	-172.022265	941.454109	451.497895
2594	25.93000	22.228688	931.255039	170.229108	8.507647	1485.908128	242.975243	20.070491	1553.248773	398.101433	98.322694	931.776414	169.399052	-53.865418	930.733673	171.059153	128.652498	546.108600	392.042398	-87.559686	487.475011	156.378167	143.832059	138.959469	393.610275	-93.482583	151.402891	-57.474003	144.404846	87.330278	366.150140	-91.938515	119.725934	-104.482782	124.909157	103.973108	582.006372	-98.068522	49.255710	86.187373	180.924017	1444.851880	165.485719	-173.656920	1426.329570	240.375645	240.553261	1163.209994	83.100671	-227.307279	1136.455713	273.904074	307.053723	909.388199	98.828276	-170.847650	940.852184	450.324421
2595	25.94000	24.482996	930.696804	169.779825	10.674394	1485.191402	242.251829	21.839730	1552.740551	397.356240	100.538671	931.335203	169.112048	-51.572755	930.058407	170.447597	129.312660	544.598053	389.098319	-86.649367	487.882721	158.961851	144.356833	135.996979	393.659599	-92.374933	155.888362	-61.643617	144.985456	83.880201	366.500613	-90.639795	125.333048	-109.249241	125.219453	102.638860	583.351241	-97.483047	50.710711	79.048321	183.405173	1443.863107	165.764251	-171.425683	1425.561825	238.753481	242.673595	1162.018183	83.768970	-224.920887	1135.645795	272.116580	307.688326	907.529781	98.692376	-169.673034	940.250260	449.150946
2596	25.95000	26.737304	930.138568	169.330543	12.841142	1484.474677	241.528415	23.608968	1552.232329	396.611046	102.754649	930.893993	168.825044	-49.280091	929.383141	169.836040	129.972822	543.087506	386.154240	-85.739049	488.290432	161.545536	144.881606	133.034489	393.708922	-91.267284	160.373833	-65.813230	145.566067	80.430123	366.851085	-89.341074	130.940163	-114.015699	125.529748	101.304612	584.696111	-96.897571	52.165711	71.909269	185.886329	1442.874334	166.042784	-169.194447	1424.794080	237.131318	244.793930	1160.826372	84.437268	-222.534495	1134.835877	270.329085	308.322929	905.671362	98.556475	-168.498418	939.648335	447.977472
2597	25.96000	28.991612	929.580333	168.881261	15.007890	1483.757951	240.805000	25.378207	1551.724107	395.865853	104.970627	930.452782	168.538040	-46.987428	928.707875	169.224483	130.632984	541.576959	383.210161	-84.828730	488.698143	164.129220	145.406380	130.071999	393.758246	-90.159634	164.859305	-69.982844	146.146677	76.980045	367.201558	-88.042354	136.547277	-118.782158	125.840044	99.970364	586.040981	-96.312096	53.620711	64.770217	188.367486	1441.885560	166.321317	-166.963210	1424.026335	235.509154	246.914264	1159.634561	85.105566	-220.148102	1134.025960	268.541590	308.957531	903.812944	98.420574	-167.323802	939.046411	446.803997
